<?xml version="1.0" standalone="no"?>
<!DOCTYPE svg PUBLIC "-//W3C//DTD SVG 20010904//EN"
 "http://www.w3.org/TR/2001/REC-SVG-20010904/DTD/svg10.dtd">
<svg version="1.0" xmlns="http://www.w3.org/2000/svg"
 width="502.000000pt" height="427.000000pt" viewBox="0 0 502.000000 427.000000"
 preserveAspectRatio="xMidYMid meet">

<g transform="translate(0.000000,427.000000) scale(0.100000,-0.100000)"
fill="#000000" stroke="none">
<path d="M2781 3776 c2 -2 389 -225 859 -496 470 -271 862 -498 871 -503 19
-12 57 -1 43 12 -5 4 -393 229 -862 499 -624 360 -862 492 -884 492 -17 0 -29
-2 -27 -4z"/>
<path d="M2736 3638 c-17 -26 -296 -1288 -296 -1337 0 -38 19 -78 52 -107 19
-18 1513 -881 1605 -928 18 -9 40 -16 50 -15 14 0 12 3 -6 10 -13 5 -388 219
-834 476 -635 366 -814 473 -828 497 -11 18 -19 50 -19 77 0 69 275 1307 296
1330 10 11 12 19 6 19 -6 0 -18 -10 -26 -22z"/>
<path d="M3524 2358 c-4 -6 -17 -58 -29 -114 -19 -88 -21 -106 -9 -122 19 -27
211 -135 228 -129 15 6 56 166 56 217 0 32 -11 41 -137 113 -88 50 -98 53
-109 35z"/>
<path d="M2331 2101 c-18 -11 -10 -22 33 -45 35 -18 86 -16 86 4 0 11 -72 50
-92 50 -7 0 -19 -4 -27 -9z"/>
<path d="M2238 2049 c-21 -11 -38 -24 -38 -28 0 -13 64 -51 85 -51 19 0 95 40
95 50 0 9 -75 50 -91 50 -8 -1 -31 -10 -51 -21z"/>
<path d="M3334 2035 c-4 -9 -2 -21 4 -27 15 -15 44 -1 40 19 -4 23 -36 29 -44
8z"/>
<path d="M2483 2013 c-21 -8 -15 -18 27 -42 69 -38 122 -12 57 28 -33 20 -59
25 -84 14z"/>
<path d="M2118 1990 c-20 -11 -39 -24 -43 -29 -5 -9 123 -91 142 -91 18 0 93
46 90 55 -4 11 -127 85 -142 84 -5 0 -27 -9 -47 -19z"/>
<path d="M2346 1974 l-38 -26 39 -24 c21 -13 46 -24 56 -24 19 0 97 41 97 51
0 10 -77 49 -97 49 -10 0 -36 -12 -57 -26z"/>
<path d="M2613 1949 c-32 -12 -29 -21 17 -46 45 -26 59 -28 84 -10 16 12 13
15 -31 39 -36 19 -54 24 -70 17z"/>
<path d="M1995 1919 c-16 -10 -30 -24 -30 -30 0 -6 38 -33 84 -60 l85 -48 48
26 c26 14 48 29 48 32 0 11 -167 101 -186 100 -11 0 -32 -9 -49 -20z"/>
<path d="M2479 1914 c-24 -14 -47 -30 -50 -36 -4 -7 -21 -3 -47 12 l-40 23
-43 -24 c-23 -13 -44 -29 -46 -34 -2 -6 17 -21 41 -33 l44 -24 40 21 c23 12
45 28 50 37 8 15 13 15 50 -6 41 -23 42 -23 82 -5 66 30 68 40 13 69 l-50 25
-44 -25z"/>
<path d="M2728 1879 c-26 -15 -23 -22 27 -49 35 -19 49 -22 63 -14 25 16 20
26 -24 51 -45 26 -43 26 -66 12z"/>
<path d="M1883 1854 c-24 -14 -43 -29 -43 -33 0 -3 54 -37 120 -75 l119 -68
42 23 c24 13 44 29 46 34 2 8 -223 146 -237 145 -3 -1 -24 -12 -47 -26z"/>
<path d="M2592 1843 c-47 -28 -46 -36 12 -67 38 -20 65 -15 115 23 l23 18 -47
26 c-26 15 -50 27 -54 27 -3 -1 -25 -12 -49 -27z"/>
<path d="M2413 1814 c-24 -14 -43 -28 -43 -32 0 -4 20 -18 45 -31 l46 -24 42
23 c23 12 46 26 50 30 7 7 -75 60 -92 60 -3 0 -25 -12 -48 -26z"/>
<path d="M2207 1799 c-21 -11 -37 -26 -34 -32 2 -7 21 -22 42 -34 l39 -22 48
26 c26 14 48 29 48 32 0 9 -77 51 -92 51 -7 -1 -30 -10 -51 -21z"/>
<path d="M2843 1813 c-24 -9 -13 -28 31 -51 36 -19 48 -22 65 -13 12 7 21 14
21 16 0 9 -79 55 -92 54 -7 0 -19 -3 -25 -6z"/>
<path d="M1758 1782 c-27 -15 -46 -31 -45 -37 2 -5 22 -20 45 -33 l41 -23 55
32 c31 17 56 33 56 35 0 5 -86 54 -96 54 -5 0 -30 -13 -56 -28z"/>
<path d="M2712 1774 c-49 -29 -46 -40 17 -68 39 -18 39 -18 85 9 25 15 46 28
46 30 0 5 -88 55 -97 55 -4 0 -27 -12 -51 -26z"/>
<path d="M2532 1743 c-47 -28 -46 -36 12 -67 38 -20 65 -15 115 23 l23 18 -45
26 c-25 15 -49 27 -54 27 -4 -1 -27 -12 -51 -27z"/>
<path d="M2328 1728 c-21 -12 -38 -25 -38 -29 0 -5 19 -19 42 -33 l41 -25 49
25 c26 13 48 28 48 32 0 11 -74 52 -91 52 -8 0 -31 -10 -51 -22z"/>
<path d="M1877 1713 c-26 -15 -46 -31 -44 -37 2 -6 22 -21 44 -34 l41 -23 54
32 c29 17 54 32 56 34 5 4 -83 55 -94 55 -5 0 -30 -12 -57 -27z"/>
<path d="M2836 1707 c-21 -12 -39 -26 -40 -32 0 -5 18 -20 41 -33 l42 -23 38
20 c68 36 68 36 20 65 -55 31 -52 31 -101 3z"/>
<path d="M2158 1700 c-20 -11 -39 -24 -43 -29 -3 -6 15 -22 39 -36 l45 -26 38
20 c69 37 69 36 21 65 -53 31 -52 31 -100 6z"/>
<path d="M2666 1677 c-22 -12 -41 -27 -43 -34 -3 -7 15 -22 38 -33 41 -21 43
-21 80 -4 63 28 66 38 15 68 -25 14 -46 26 -48 26 -2 0 -21 -10 -42 -23z"/>
<path d="M2448 1659 c-21 -11 -38 -24 -38 -28 0 -13 64 -51 85 -51 19 0 95 40
95 50 0 9 -75 50 -91 50 -8 -1 -31 -10 -51 -21z"/>
<path d="M1993 1643 c-24 -13 -43 -28 -43 -33 0 -12 64 -50 85 -50 21 0 105
47 105 59 0 10 -74 51 -91 50 -8 -1 -33 -12 -56 -26z"/>
<path d="M2948 1634 c-21 -13 -38 -26 -38 -29 0 -2 20 -16 45 -31 l45 -26 45
26 c25 15 45 30 45 35 0 10 -74 51 -91 50 -8 0 -31 -11 -51 -25z"/>
<path d="M2268 1624 c-21 -13 -38 -26 -38 -29 0 -2 20 -16 45 -31 l45 -26 45
26 c25 15 45 30 45 35 0 10 -74 51 -91 50 -8 0 -31 -11 -51 -25z"/>
<path d="M2778 1606 c-54 -32 -54 -32 -4 -61 50 -29 71 -27 125 14 l24 18 -45
27 c-53 31 -52 31 -100 2z"/>
<path d="M2563 1588 c-18 -11 -33 -23 -33 -28 0 -11 67 -50 86 -50 18 0 94 42
94 52 0 11 -76 48 -97 47 -10 0 -33 -10 -50 -21z"/>
<path d="M2113 1574 c-24 -14 -43 -30 -43 -35 0 -9 115 -79 131 -79 14 0 109
54 109 62 0 10 -124 78 -141 78 -8 -1 -33 -12 -56 -26z"/>
<path d="M3068 1567 c-21 -12 -38 -25 -38 -29 0 -4 20 -19 45 -33 l44 -26 46
26 c25 15 45 30 45 34 0 10 -74 51 -91 51 -8 -1 -31 -11 -51 -23z"/>
<path d="M2388 1557 c-21 -12 -38 -25 -38 -29 0 -4 20 -19 45 -33 l44 -26 46
26 c25 15 45 31 45 36 0 10 -74 49 -92 49 -7 -1 -30 -11 -50 -23z"/>
<path d="M2891 1533 l-43 -26 23 -18 c53 -41 74 -43 123 -14 25 15 46 29 46
31 0 6 -86 54 -96 54 -5 -1 -29 -13 -53 -27z"/>
<path d="M2689 1523 c-24 -13 -46 -26 -47 -28 -6 -6 77 -55 93 -55 15 0 95 46
95 55 0 3 -22 16 -48 29 l-49 25 -44 -26z"/>
<path d="M3188 1498 c-21 -12 -38 -25 -38 -29 0 -10 68 -49 86 -49 21 0 94 39
94 50 0 11 -73 50 -92 50 -7 0 -30 -10 -50 -22z"/>
<path d="M2508 1488 c-21 -12 -38 -25 -38 -29 0 -10 68 -49 86 -49 21 0 94 39
94 50 0 11 -73 50 -92 50 -7 0 -30 -10 -50 -22z"/>
<path d="M2283 1474 c-24 -14 -43 -30 -43 -35 0 -4 30 -26 68 -47 37 -21 159
-91 271 -156 l204 -118 49 23 c27 12 53 28 59 35 7 9 -38 39 -173 117 -101 58
-221 129 -268 156 -47 28 -94 51 -105 51 -11 -1 -39 -12 -62 -26z"/>
<path d="M3013 1464 c-24 -14 -43 -27 -43 -29 0 -2 20 -15 45 -29 l45 -27 50
26 c28 14 48 30 45 35 -7 11 -79 50 -92 50 -4 0 -27 -12 -50 -26z"/>
<path d="M2808 1453 c-52 -29 -52 -36 6 -67 38 -20 65 -15 115 23 l23 18 -45
26 c-25 15 -47 27 -49 27 -2 0 -24 -12 -50 -27z"/>
<path d="M3308 1429 c-21 -11 -38 -23 -38 -28 0 -12 67 -51 87 -51 19 0 93 41
93 52 0 9 -74 48 -92 48 -7 -1 -30 -10 -50 -21z"/>
<path d="M2628 1419 c-21 -11 -38 -23 -38 -28 0 -12 67 -51 87 -51 18 0 93 41
93 51 0 11 -69 49 -88 49 -9 -1 -34 -10 -54 -21z"/>
<path d="M3500 1425 c-7 -9 -11 -17 -9 -19 2 -1 21 -13 42 -26 32 -19 43 -21
63 -11 31 14 25 25 -26 51 -47 24 -54 24 -70 5z"/>
<path d="M3128 1394 c-21 -13 -38 -26 -38 -28 0 -2 20 -16 45 -31 l45 -26 49
28 c27 15 47 31 45 35 -8 12 -81 48 -96 47 -7 0 -30 -11 -50 -25z"/>
<path d="M2922 1383 c-48 -29 -46 -39 17 -67 39 -18 39 -18 85 9 25 15 46 28
46 30 0 5 -88 55 -97 55 -4 -1 -27 -12 -51 -27z"/>
<path d="M1020 1361 c0 -48 10 -61 69 -91 31 -15 423 -240 871 -500 l815 -471
3 32 c2 17 0 35 -5 39 -4 4 -384 225 -843 490 -459 265 -849 493 -867 506 -40
31 -43 30 -43 -5z"/>
<path d="M3433 1364 c-24 -14 -43 -30 -43 -35 0 -5 20 -19 45 -31 l46 -22 44
24 c25 14 45 28 45 31 0 6 -84 60 -92 59 -2 -1 -22 -12 -45 -26z"/>
<path d="M2753 1354 c-24 -14 -43 -30 -43 -35 0 -5 20 -19 45 -31 l46 -22 44
24 c25 14 45 28 45 31 0 6 -84 60 -92 59 -2 -1 -22 -12 -45 -26z"/>
<path d="M3616 1357 c-17 -13 -15 -16 27 -40 53 -31 57 -32 82 -13 18 13 16
15 -23 40 -47 30 -61 32 -86 13z"/>
<path d="M3248 1327 c-21 -12 -38 -25 -38 -29 0 -10 75 -48 94 -48 19 0 86 39
86 50 0 12 -68 50 -88 50 -9 -1 -34 -11 -54 -23z"/>
<path d="M3043 1314 c-24 -14 -43 -27 -43 -29 0 -2 21 -16 46 -31 l46 -27 41
23 c23 13 46 26 50 30 9 8 -70 60 -89 60 -5 0 -28 -12 -51 -26z"/>
<path d="M3553 1294 c-24 -14 -43 -29 -43 -35 0 -5 20 -19 45 -31 44 -22 44
-22 80 -2 59 31 60 39 11 68 -25 14 -46 26 -48 26 -2 0 -22 -12 -45 -26z"/>
<path d="M2873 1284 c-24 -14 -43 -29 -43 -33 0 -5 20 -19 44 -32 l44 -23 46
25 c25 13 46 27 46 31 0 6 -81 58 -91 58 -2 0 -23 -12 -46 -26z"/>
<path d="M3730 1286 c-9 -12 -3 -19 37 -39 42 -22 52 -23 73 -12 l23 13 -41
26 c-47 29 -74 33 -92 12z"/>
<path d="M3368 1258 c-21 -12 -38 -25 -38 -30 0 -10 74 -48 94 -48 19 0 86 39
86 50 0 12 -68 50 -88 50 -9 0 -34 -10 -54 -22z"/>
<path d="M3168 1250 c-20 -11 -39 -24 -43 -29 -3 -6 15 -22 39 -36 l45 -26 38
20 c69 37 69 36 21 65 -53 31 -52 31 -100 6z"/>
<path d="M3670 1224 c-25 -14 -46 -27 -48 -29 -2 -2 17 -15 43 -30 46 -28 46
-28 86 -10 64 29 66 40 16 69 -24 14 -46 26 -48 26 -2 0 -24 -12 -49 -26z"/>
<path d="M2996 1217 c-22 -12 -41 -27 -43 -33 -2 -6 16 -21 39 -34 l44 -23 41
22 c23 11 44 25 48 30 4 8 -71 61 -86 61 -2 0 -22 -10 -43 -23z"/>
<path d="M3853 1223 c-21 -8 -15 -18 27 -42 69 -39 122 -12 55 28 -35 21 -57
24 -82 14z"/>
<path d="M3498 1194 c-27 -13 -48 -28 -48 -33 0 -4 20 -19 45 -32 l45 -24 45
24 c25 13 44 28 42 34 -1 5 -21 20 -42 32 l-40 23 -47 -24z"/>
<path d="M3278 1176 c-21 -11 -38 -24 -38 -28 0 -3 20 -18 45 -33 l46 -26 44
26 c25 14 45 30 45 35 0 11 -74 50 -92 49 -7 -1 -30 -11 -50 -23z"/>
<path d="M3778 1157 c-21 -12 -38 -25 -38 -29 0 -11 136 -88 155 -88 17 0 95
41 95 51 0 8 -146 89 -161 89 -8 -1 -31 -11 -51 -23z"/>
<path d="M2868 1142 c-27 -15 -48 -31 -48 -37 0 -12 113 -75 135 -75 19 0 105
48 105 59 0 8 -125 81 -137 81 -4 0 -29 -13 -55 -28z"/>
<path d="M3103 1144 c-24 -14 -41 -29 -39 -32 2 -4 24 -18 49 -31 l45 -24 46
27 c26 15 44 31 41 37 -7 10 -80 49 -92 49 -4 -1 -27 -12 -50 -26z"/>
<path d="M3613 1124 c-24 -14 -43 -29 -43 -34 0 -4 20 -18 45 -31 l45 -24 45
25 c25 13 45 28 45 32 0 7 -82 58 -91 58 -2 -1 -23 -12 -46 -26z"/>
<path d="M3398 1107 c-21 -12 -38 -25 -38 -29 0 -10 70 -48 90 -48 22 0 90 38
90 51 0 10 -74 49 -92 49 -7 -1 -30 -11 -50 -23z"/>
<path d="M3222 1074 c-23 -14 -40 -28 -38 -32 2 -4 24 -18 49 -31 l44 -24 46
28 c26 15 44 31 41 36 -6 10 -79 49 -91 49 -4 0 -27 -12 -51 -26z"/>
<path d="M3032 1049 c-29 -16 -52 -33 -52 -38 0 -4 20 -19 44 -32 l45 -23 43
23 c74 40 75 44 20 74 l-48 26 -52 -30z"/>
<path d="M3733 1054 c-24 -14 -43 -28 -43 -32 0 -4 20 -18 44 -32 l44 -24 46
25 c25 13 45 28 43 34 -3 9 -75 55 -87 55 -3 0 -24 -12 -47 -26z"/>
<path d="M3518 1037 c-21 -12 -38 -25 -38 -28 0 -4 40 -30 90 -58 l89 -52 38
20 c71 38 72 35 -21 90 -48 28 -94 51 -104 51 -9 -1 -34 -11 -54 -23z"/>
<path d="M3341 1004 c-42 -26 -43 -27 -25 -43 11 -9 17 -15 15 -14 -11 6 -61
-29 -55 -39 4 -6 3 -8 -4 -4 -12 7 -62 -13 -62 -25 0 -4 21 -19 46 -34 39 -23
50 -25 68 -16 11 7 38 21 59 32 20 10 37 24 37 30 0 6 25 -3 55 -20 30 -17 62
-31 70 -31 17 0 95 41 95 50 0 8 -231 140 -244 140 -6 0 -31 -12 -55 -26z"/>
<path d="M3110 962 l-23 -18 47 -28 c42 -25 51 -26 77 -16 16 7 29 15 29 19 0
6 -93 61 -103 61 -3 0 -15 -8 -27 -18z"/>
<path d="M3353 828 c-32 -16 -29 -23 24 -52 46 -26 72 -27 92 -2 8 10 0 19
-38 39 -27 15 -50 27 -52 26 -2 0 -14 -5 -26 -11z"/>
</g>
</svg>
