<?xml version="1.0" standalone="no"?>
<!DOCTYPE svg PUBLIC "-//W3C//DTD SVG 20010904//EN"
 "http://www.w3.org/TR/2001/REC-SVG-20010904/DTD/svg10.dtd">
<svg version="1.0" xmlns="http://www.w3.org/2000/svg"
 width="1200.000000pt" height="1200.000000pt" viewBox="0 0 1200.000000 1200.000000"
 preserveAspectRatio="xMidYMid meet">

<g transform="translate(0.000000,1200.000000) scale(0.100000,-0.100000)"
fill="#000000" stroke="none">
<path d="M2565 10291 c-48 -12 -74 -33 -91 -76 -14 -34 -18 -102 -25 -450 -11
-619 -10 -1041 4 -1246 6 -101 12 -278 11 -394 0 -195 -2 -217 -27 -310 -78
-291 -233 -470 -544 -630 -97 -49 -137 -87 -171 -162 -16 -36 -17 -191 -17
-2623 0 -2394 1 -2588 17 -2622 9 -21 31 -44 50 -55 32 -17 193 -18 4228 -18
3992 0 4197 1 4227 18 18 9 41 32 50 50 17 30 18 165 18 2627 l0 2595 -23 46
c-31 63 -51 80 -171 144 -147 79 -205 119 -300 210 -230 220 -311 477 -271
868 23 221 6 256 -292 599 -595 685 -1172 1322 -1235 1363 -26 18 -68 40 -93
51 -44 19 -110 19 -2680 21 -1449 0 -2648 -2 -2665 -6z m5135 -1103 c0 -520 4
-765 11 -793 15 -55 42 -89 86 -111 35 -18 73 -19 519 -22 l482 -4 6 109 c4
59 9 138 12 176 l6 67 -371 0 -371 0 0 485 c0 267 4 485 8 485 19 0 409 -425
881 -960 227 -257 213 -220 224 -605 4 -170 5 -564 2 -874 -7 -614 -7 -614
-66 -695 -28 -39 -309 -251 -1209 -914 -856 -631 -1260 -921 -1298 -931 -57
-17 -135 -13 -215 9 -246 69 -530 75 -792 17 -121 -27 -235 -28 -283 -3 -85
44 -2405 1753 -2450 1804 -13 15 -35 50 -48 77 l-24 50 0 1661 c0 914 3 1676
6 1693 l7 31 2438 0 2439 0 0 -752z m-5282 -2322 l-3 -85 -118 81 c-65 44
-117 81 -115 83 2 1 55 39 118 84 l115 83 3 -81 c1 -44 1 -118 0 -165z m7330
126 c34 -25 62 -49 62 -52 0 -6 -65 -52 -202 -143 l-28 -19 0 167 0 167 53
-37 c28 -21 80 -58 115 -83z m-6174 -1537 c800 -588 1455 -1073 1455 -1077 1
-7 -2931 -2220 -2949 -2226 -7 -3 -10 765 -10 2203 l0 2207 25 -19 c14 -10
679 -499 1479 -1088z m6344 -2224 l-3 -1110 -1494 1102 c-822 607 -1496 1107
-1498 1112 -1 6 671 506 1495 1113 l1497 1103 3 -1105 c1 -607 1 -1604 0
-2215z m-3750 1063 c42 -9 116 -30 163 -48 169 -63 61 13 1989 -1409 904 -668
1008 -746 1009 -759 1 -5 -1497 -8 -3329 -8 -3281 0 -3329 0 -3340 19 -5 11
-10 22 -10 26 0 5 1512 1140 2090 1568 275 204 664 464 772 516 98 47 188 78
278 96 93 19 285 18 378 -1z"/>
</g>
</svg>
