<?xml version="1.0" standalone="no"?>
<!DOCTYPE svg PUBLIC "-//W3C//DTD SVG 20010904//EN"
 "http://www.w3.org/TR/2001/REC-SVG-20010904/DTD/svg10.dtd">
<svg version="1.0" xmlns="http://www.w3.org/2000/svg"
 width="512.000000pt" height="512.000000pt" viewBox="0 0 512.000000 512.000000"
 preserveAspectRatio="xMidYMid meet">

<g transform="translate(0.000000,512.000000) scale(0.100000,-0.100000)"
fill="#000000" stroke="none">
<path d="M1465 3735 c-138 -56 -204 -208 -144 -332 37 -76 87 -102 340 -177
108 -32 139 -55 139 -102 0 -85 -44 -109 -195 -108 -86 1 -123 6 -169 22 -76
28 -111 28 -130 0 -20 -28 -20 -58 -1 -85 23 -33 161 -73 270 -80 111 -7 185
8 256 50 126 76 157 243 63 347 -46 51 -94 73 -239 111 -138 36 -189 61 -205
100 -21 49 0 88 64 122 54 28 172 29 274 3 67 -17 74 -17 97 -2 34 23 36 88 2
110 -40 27 -148 46 -257 46 -88 0 -115 -4 -165 -25z"/>
<path d="M2131 3746 c-49 -27 -50 -35 -51 -443 0 -370 1 -384 20 -403 27 -27
81 -26 106 1 18 19 19 44 24 315 l5 293 119 -295 c128 -318 138 -334 206 -334
68 0 78 16 206 334 l119 295 5 -293 c5 -271 6 -296 24 -315 25 -27 79 -28 106
-1 19 19 20 33 20 400 0 272 -3 386 -12 405 -24 54 -115 72 -174 36 -28 -17
-45 -53 -160 -340 -70 -177 -131 -321 -134 -321 -3 0 -64 144 -134 321 -115
287 -132 323 -160 340 -36 22 -100 24 -135 5z"/>
<path d="M3365 3740 c-108 -43 -175 -133 -175 -238 0 -71 18 -110 74 -159 48
-42 82 -56 287 -117 130 -39 163 -73 135 -140 -24 -57 -62 -71 -191 -70 -85 1
-123 6 -169 23 -76 27 -111 27 -130 -1 -41 -57 -10 -99 97 -134 71 -24 99 -28
207 -28 110 -1 131 2 174 22 77 35 116 70 142 126 45 96 25 198 -51 265 -48
42 -74 53 -231 95 -134 37 -171 56 -192 99 -20 40 5 90 60 118 56 29 173 31
275 6 56 -15 76 -16 93 -7 31 16 43 56 28 88 -21 43 -99 64 -253 69 -112 3
-137 0 -180 -17z"/>
</g>
</svg>
