<?xml version="1.0" standalone="no"?>
<!DOCTYPE svg PUBLIC "-//W3C//DTD SVG 20010904//EN"
 "http://www.w3.org/TR/2001/REC-SVG-20010904/DTD/svg10.dtd">
<svg version="1.0" xmlns="http://www.w3.org/2000/svg"
 width="1000.000000pt" height="1000.000000pt" viewBox="0 0 1000.000000 1000.000000"
 preserveAspectRatio="xMidYMid meet">

<g transform="translate(0.000000,1000.000000) scale(0.100000,-0.100000)"
fill="#000000" stroke="none">
<path d="M6094 6086 c-6 -16 12 -56 25 -56 13 0 7 30 -8 40 -8 4 -10 13 -7 19
4 6 5 11 1 11 -3 0 -8 -6 -11 -14z"/>
<path d="M6150 5973 c1 -27 37 -70 49 -58 7 7 3 21 -10 43 -23 35 -39 42 -39
15z"/>
<path d="M6220 5859 c0 -19 34 -69 47 -69 18 0 16 16 -4 51 -17 29 -43 39 -43
18z"/>
<path d="M6300 5736 c0 -7 10 -25 21 -40 31 -39 49 -18 20 23 -24 33 -41 40
-41 17z"/>
<path d="M6380 5624 c0 -9 10 -29 21 -46 29 -40 49 -22 23 21 -21 35 -44 48
-44 25z"/>
<path d="M6460 5506 c0 -16 38 -66 51 -66 16 0 10 26 -12 54 -22 28 -39 34
-39 12z"/>
<path d="M6540 5399 c0 -15 39 -69 51 -69 16 0 10 26 -12 54 -21 27 -39 34
-39 15z"/>
<path d="M6625 5290 c-10 -16 45 -84 57 -72 12 12 -1 39 -30 65 -14 13 -22 15
-27 7z"/>
<path d="M6710 5167 c0 -7 12 -26 27 -42 23 -24 28 -26 31 -12 4 20 -28 66
-45 67 -7 0 -13 -6 -13 -13z"/>
<path d="M6796 5062 c-2 -4 7 -22 20 -40 42 -53 62 -36 23 19 -21 29 -34 36
-43 21z"/>
<path d="M2325 4985 c-173 -62 -169 -372 9 -620 52 -72 44 -42 -14 55 -147
245 -136 508 24 551 110 30 275 -72 385 -236 48 -73 111 -216 111 -254 0 -11
4 -22 9 -26 19 -11 1 75 -29 150 -108 258 -340 437 -495 380z"/>
<path d="M6880 4950 c0 -14 42 -70 52 -70 15 0 8 35 -11 58 -20 23 -41 29 -41
12z"/>
<path d="M4927 4833 c2 -21 6 -45 9 -53 3 -10 2 -12 -4 -5 -6 6 -12 19 -15 30
-4 17 -5 16 -6 -5 -1 -19 -4 -21 -10 -11 -7 11 -9 8 -10 -10 -2 -67 -5 -78
-18 -67 -14 12 -18 22 -5 14 5 -3 9 0 9 7 0 7 2 17 4 22 2 6 0 10 -6 10 -5 0
-8 -6 -7 -14 2 -7 -1 -10 -7 -7 -6 4 -8 -2 -5 -16 3 -13 6 -33 5 -44 0 -17 25
-36 127 -95 70 -40 142 -81 160 -92 l32 -19 0 134 0 133 -96 55 c-99 55 -134
68 -134 49 0 -5 4 -8 8 -5 5 3 9 -1 9 -8 0 -15 -21 -15 -34 -1 -4 4 -2 5 5 0
11 -6 12 -3 3 14 -16 29 -19 27 -14 -16z"/>
<path d="M2395 4841 c-49 -20 -60 -48 -60 -145 0 -83 3 -97 33 -159 30 -61
136 -187 148 -175 5 5 12 65 13 114 1 16 8 39 17 50 8 10 13 12 9 4 -4 -10 -2
-9 8 2 8 10 17 15 20 11 4 -3 7 -2 7 4 0 6 16 20 36 32 19 12 32 15 29 9 -4
-7 3 -2 15 12 12 14 18 18 14 10 -5 -11 -4 -12 5 -4 32 29 -88 180 -174 220
-52 25 -86 29 -120 15z m51 -176 c18 -28 13 -55 -10 -55 -20 0 -50 46 -42 65
8 23 34 18 52 -10z m98 -57 c22 -31 20 -58 -4 -58 -21 0 -50 46 -43 68 7 19
30 14 47 -10z"/>
<path d="M6970 4836 c0 -16 38 -66 51 -66 16 0 10 26 -12 54 -22 28 -39 34
-39 12z"/>
<path d="M7050 4730 c0 -18 43 -70 57 -70 19 0 16 17 -9 50 -21 29 -48 40 -48
20z"/>
<path d="M4824 4709 c-4 -7 -3 -9 4 -5 6 4 12 -3 14 -16 3 -19 4 -20 10 -6 9
21 -16 45 -28 27z"/>
<path d="M5310 4537 l0 -135 283 -162 c155 -90 284 -164 287 -166 3 -1 6 57 8
130 l3 132 -268 154 c-147 84 -278 160 -290 168 l-23 14 0 -135z"/>
<path d="M7140 4617 c0 -22 35 -61 48 -53 6 4 9 13 5 21 -8 21 -24 19 -16 -2
7 -19 5 -18 -17 11 -12 16 -12 18 -1 12 9 -6 12 -5 9 4 -6 19 -28 24 -28 7z"/>
<path d="M6178 3813 c-27 -8 -48 -18 -48 -24 0 -5 3 -9 7 -9 16 0 93 35 93 43
0 4 -1 7 -2 6 -2 -1 -24 -8 -50 -16z"/>
<path d="M5311 3468 c-1 -20 4 -28 17 -28 13 0 14 2 4 9 -8 4 -13 11 -12 15 1
4 -1 12 -3 19 -3 6 -6 0 -6 -15z"/>
</g>
</svg>
